<svg xmlns="http://www.w3.org/2000/svg" viewBox="0 0 1024 1024" width="1024" height="1024">
  <defs><linearGradient id="o" x1="0" y1="0" x2="0" y2="1"><stop offset="0" stop-color="#F37E4F"/><stop offset="1" stop-color="#F89A35"/></linearGradient></defs>
  <path d="M512.0 85.0 Q540.4 118.0 567.2 130.9 Q596.6 126.1 633.1 102.4 Q651.1 142.1 673.2 162.1 Q702.7 165.7 744.5 153.3 Q750.5 196.4 766.1 221.8 Q793.4 233.6 837.0 233.4 Q830.6 276.5 838.4 305.2 Q861.3 324.3 903.1 336.4 Q884.9 375.9 884.3 405.7 Q900.9 430.4 937.6 453.8 Q909.0 486.6 900.0 515.0 Q909.0 543.4 937.6 576.2 Q900.9 599.6 884.3 624.3 Q884.9 654.1 903.1 693.6 Q861.3 705.7 838.4 724.8 Q830.6 753.5 837.0 796.6 Q793.4 796.4 766.1 808.2 Q750.5 833.6 744.5 876.7 Q702.7 864.3 673.2 867.9 Q651.1 887.9 633.1 927.6 Q596.6 903.9 567.2 899.1 Q540.4 912.0 512.0 945.0 Q483.6 912.0 456.8 899.1 Q427.4 903.9 390.9 927.6 Q372.9 887.9 350.8 867.9 Q321.3 864.3 279.5 876.7 Q273.5 833.6 257.9 808.2 Q230.6 796.4 187.0 796.6 Q193.4 753.5 185.6 724.8 Q162.7 705.7 120.9 693.6 Q139.1 654.1 139.7 624.3 Q123.1 599.6 86.4 576.2 Q115.0 543.4 124.0 515.0 Q115.0 486.6 86.4 453.8 Q123.1 430.4 139.7 405.7 Q139.1 375.9 120.9 336.4 Q162.7 324.3 185.6 305.2 Q193.4 276.5 187.0 233.4 Q230.6 233.6 257.9 221.8 Q273.5 196.4 279.5 153.3 Q321.3 165.7 350.8 162.1 Q372.9 142.1 390.9 102.4 Q427.4 126.1 456.8 130.9 Q483.6 118.0 512.0 85.0 Z" fill="#FFFFFF"/>
  <ellipse cx="262" cy="258" rx="50" ry="66" transform="rotate(-42 262 258)" fill="url(#o)" stroke="#FFFFFF" stroke-width="12"/>
  <ellipse cx="762" cy="258" rx="50" ry="66" transform="rotate(42 762 258)" fill="url(#o)" stroke="#FFFFFF" stroke-width="12"/>
</svg>
